<svg xmlns="http://www.w3.org/2000/svg" viewBox="0 0 64 64">
  <defs>
    <linearGradient id="g" x1="0" y1="0" x2="1" y2="1">
      <stop offset="0%" stop-color="#4f46e5"/>
      <stop offset="100%" stop-color="#06b6d4"/>
    </linearGradient>
  </defs>
  <rect width="64" height="64" rx="12" fill="url(#g)"/>
  <g fill="#fff" transform="translate(12,12)">
    <path d="M12 6h16a6 6 0 0 1 6 6v6h-6v-6a2 2 0 0 0-2-2H12a2 2 0 0 0-2 2v20a2 2 0 0 0 2 2h14v6H12a8 8 0 0 1-8-8V12a8 8 0 0 1 8-6z"/>
    <path d="M30 24h8v8h-8zM26 20h8v8h-8z" opacity=".9"/>
  </g>
</svg>
